<svg width="24" height="30" viewBox="0 0 24 30" fill="none" xmlns="http://www.w3.org/2000/svg">
<path d="M18.4041 14.502C16.6455 16.0979 14.3647 16.9809 12.0002 16.9809C9.63573 16.9809 7.35494 16.0978 5.5963 14.502C2.11169 16.7177 -0.00169631 20.5852 1.02161e-06 24.7442C1.02161e-06 26.1379 0.548238 27.4751 1.52452 28.4608C2.5004 29.4464 3.82397 30.0001 5.20433 30.0001H18.7957C20.176 30.0001 21.4995 29.4464 22.4755 28.4608C23.4518 27.4752 24 26.1379 24 24.7442C24.0017 20.5853 21.8883 16.7177 18.4037 14.502H18.4041Z" fill="white"/>
<path d="M19.2054 7.27824C19.2054 11.2978 15.979 14.556 11.9992 14.556C8.01938 14.556 4.79297 11.2978 4.79297 7.27824C4.79297 3.25865 8.01938 0 11.9992 0C15.979 0 19.2054 3.25865 19.2054 7.27824Z" fill="white"/>
</svg>
