<svg width="30" height="30" viewBox="0 0 30 30" fill="none" xmlns="http://www.w3.org/2000/svg">
<path d="M0.848588 10.4932C0.610748 10.4507 0.395241 10.326 0.240222 10.1409C0.084986 9.95551 0 9.72157 0 9.47985V8.34854C0 8.1068 0.084986 7.87287 0.240222 7.68773C0.395241 7.50236 0.610748 7.3777 0.848588 7.3352L2.18499 7.10214H2.1852C2.34282 6.52003 2.57589 5.96107 2.87832 5.43923L2.09501 4.32658C1.95625 4.12842 1.89164 3.88777 1.91267 3.64667C1.9337 3.40581 2.03885 3.17989 2.20992 3.00884L3.01188 2.20689C3.1825 2.03605 3.40777 1.93089 3.64822 1.90986C3.88887 1.88883 4.1291 1.95322 4.32663 2.09198L5.43929 2.87833C5.96136 2.57676 6.52032 2.34477 7.10221 2.18822L7.33528 0.851833C7.37713 0.613345 7.50157 0.397191 7.68694 0.241307C7.87209 0.0856401 8.10647 0.000216459 8.34865 0H9.48318C9.72427 0.000650376 9.95756 0.086073 10.1421 0.241091C10.3268 0.396325 10.451 0.61118 10.4933 0.848564L10.7263 2.18495V2.18517C11.3096 2.34235 11.8696 2.57541 12.3923 2.87828L13.5019 2.09819V2.09798C13.6997 1.95944 13.9399 1.89505 14.1803 1.91608C14.4208 1.93711 14.646 2.04226 14.8167 2.2131L15.6217 3.01184C15.7928 3.1829 15.8981 3.40881 15.9192 3.64989C15.9402 3.89076 15.8756 4.13164 15.7368 4.3298L14.9567 5.4394L14.9565 5.43918C15.1839 5.84244 15.3702 6.26717 15.5128 6.70752C15.1815 7.11793 14.9591 7.60533 14.8665 8.12477L14.7577 8.74634L14.4251 8.88315L13.9123 8.52563H13.9121C13.3835 8.15403 12.7526 7.95524 12.1063 7.95696C12.0038 7.95696 11.9073 7.9756 11.7954 7.98492H11.7956C11.4754 6.96873 10.6483 6.1937 9.6137 5.93977C8.57907 5.68611 7.48705 5.99072 6.73321 6.74345C5.97938 7.496 5.67283 8.58762 5.92498 9.62263C6.17692 10.6576 6.9509 11.4861 7.96643 11.8078C7.89293 12.5538 8.08936 13.3014 8.51951 13.9152L8.88006 14.4279C8.83345 14.5368 8.78683 14.6486 8.74326 14.7605L8.12168 14.8693C7.60242 14.9621 7.1148 15.1844 6.70441 15.5158C6.26429 15.373 5.83957 15.1867 5.43629 14.9595L4.32362 15.7396C4.12589 15.8771 3.8861 15.9404 3.64632 15.9189C3.40653 15.8972 3.18192 15.7921 3.01192 15.6215L2.20996 14.8197C2.0389 14.6485 1.93375 14.4228 1.91272 14.1817C1.89169 13.9406 1.9563 13.6999 2.09505 13.5018L2.87837 12.3922C2.57679 11.8703 2.3448 11.3114 2.18824 10.7293L0.848588 10.4932ZM29.9998 17.9527V19.3919H30C29.9993 19.6984 29.8912 19.995 29.6939 20.2296C29.4968 20.4644 29.2232 20.6223 28.9214 20.6756L27.2274 20.9865V20.9863C27.0271 21.7195 26.7325 22.4237 26.3509 23.0813L27.3393 24.4925V24.4923C27.5221 24.7457 27.608 25.0566 27.5813 25.3679C27.5544 25.6793 27.4167 25.9708 27.1932 26.1894L26.1894 27.1932C25.9721 27.4103 25.6855 27.544 25.3798 27.5707C25.0739 27.5974 24.7684 27.5154 24.5171 27.3394L23.0812 26.3509C22.4178 26.7338 21.7073 27.0284 20.9676 27.2275L20.6567 28.9214H20.6569C20.6035 29.2232 20.4457 29.4968 20.2109 29.6939C19.9763 29.8912 19.6797 29.9994 19.3731 30H17.9619C17.6554 29.9993 17.3588 29.8912 17.1242 29.6939C16.8894 29.4968 16.7315 29.2232 16.6782 28.9214L16.3673 27.2275H16.3675C15.6288 27.0284 14.9194 26.7338 14.2571 26.3509L12.8583 27.3394C12.607 27.5154 12.3015 27.5973 11.9956 27.5707C11.6899 27.544 11.4033 27.4103 11.1863 27.1932L10.1699 26.1894C9.95004 25.9711 9.81497 25.6819 9.78873 25.3734C9.76272 25.0646 9.84706 24.7568 10.0268 24.5046L11.0152 23.0813C10.6326 22.4189 10.3379 21.7093 10.1387 20.9707L8.44474 20.6598V20.66C8.14294 20.6067 7.86934 20.4488 7.67225 20.2143C7.47496 19.9795 7.36677 19.6829 7.36634 19.3763V17.9621C7.36655 17.656 7.47452 17.3598 7.67095 17.1252C7.8676 16.8904 8.14034 16.7324 8.44172 16.6784L10.1357 16.3675V16.3677C10.3345 15.628 10.6291 14.9175 11.0122 14.2541L10.0268 12.8585C9.85078 12.6072 9.76883 12.3017 9.79549 11.9958C9.82237 11.6901 9.95593 11.4035 10.173 11.1864L11.1893 10.1701C11.4066 9.95415 11.6927 9.82168 11.998 9.79545C12.303 9.76943 12.6076 9.85138 12.8583 10.027L14.2695 11.0154C14.9319 10.6326 15.6413 10.3379 16.3799 10.1389L16.6908 8.44496C16.7441 8.14317 16.9018 7.86957 17.1365 7.67248C17.3714 7.47519 17.6679 7.367 17.9745 7.36657H19.4137H19.4135C19.7181 7.36895 20.0121 7.47779 20.2448 7.67422C20.4776 7.87064 20.6342 8.1423 20.6879 8.44192L20.9988 10.1359H20.9986C21.728 10.3381 22.4278 10.6339 23.0812 11.0155L24.5046 10.027C24.7561 9.85097 25.0616 9.76902 25.3675 9.79568C25.6732 9.82257 25.9598 9.95612 26.1769 10.1731L27.1932 11.1895C27.4103 11.4065 27.544 11.6931 27.5707 11.9991C27.5974 12.3048 27.5154 12.6102 27.3394 12.8617L26.3509 14.2729V14.2727C26.734 14.9361 27.0287 15.6466 27.2275 16.3864L28.9214 16.6973V16.697C29.2202 16.7497 29.4912 16.905 29.688 17.1359C29.8849 17.3665 29.995 17.6588 30 17.9621L29.9998 17.9527ZM22.5652 18.6831C22.5652 17.6535 22.1561 16.6662 21.428 15.9381C20.7 15.2101 19.7127 14.801 18.683 14.801C17.6534 14.801 16.6661 15.2101 15.938 15.9381C15.21 16.6662 14.8009 17.6535 14.8009 18.6831C14.8009 19.7127 15.21 20.7001 15.938 21.4281C16.6661 22.1561 17.6534 22.5652 18.683 22.5652C19.7127 22.5652 20.7 22.1561 21.428 21.4281C22.1561 20.7001 22.5652 19.7127 22.5652 18.6831Z" fill="white"/>
</svg>
