<svg width="40" height="40" viewBox="0 0 40 40" fill="none" xmlns="http://www.w3.org/2000/svg">
<path fill-rule="evenodd" clip-rule="evenodd" d="M38.1856 16.7341H35.5546V7.46413L35.3656 7.27513L28.45 0.359132L28.0902 0H7.33744C5.74265 0 4.44553 1.29745 4.44553 2.89192V16.7334H1.81453C0.813852 16.7334 0 17.5473 0 18.5479V31.5519C0 32.5523 0.813885 33.3671 1.81453 33.3671H4.4452V37.1081C4.4452 38.7029 5.74265 40 7.33711 40H32.6622C34.257 40 35.5541 38.7026 35.5541 37.1081V33.3671H38.1852C39.1855 33.3671 39.9997 32.5532 39.9997 31.5519L40 18.5479C40.0003 17.5479 39.1864 16.7337 38.1861 16.7337L38.1856 16.7341ZM13.6677 23.792C13.6677 24.6018 13.0246 25.1787 11.9933 25.1787H10.4078V22.3843H11.9933C13.0131 22.3843 13.6677 22.8615 13.6677 23.7704V23.792ZM12.1049 21.1419C13.9233 21.1419 15.054 22.1729 15.0543 23.7364V23.7584C15.0543 25.4998 13.6565 26.4093 11.9494 26.4093H10.408V28.2833C10.408 28.66 10.109 28.9594 9.73195 28.9594C9.34371 28.9594 9.04439 28.6604 9.04439 28.2833V21.8291C9.04439 21.4409 9.34371 21.1416 9.73195 21.1416H12.1048L12.1049 21.1419ZM22.0404 25.045C22.0404 26.5641 20.9758 27.6616 19.3451 27.6616H17.8149V22.3837H19.3451C20.9751 22.3837 22.0404 23.5036 22.0404 25.0226V25.045ZM19.3458 21.1419C21.7849 21.1419 23.4709 22.8163 23.4709 25.0016V25.0236C23.4709 27.2079 21.7852 28.904 19.3458 28.904H17.1392C16.751 28.904 16.452 28.6047 16.452 28.2168V21.8292C16.452 21.4409 16.7513 21.1416 17.1392 21.1416H19.3458V21.1419ZM30.9555 21.7629C30.9555 22.1067 30.6783 22.3843 30.3342 22.3843H26.4864V24.502H29.8349C30.1787 24.502 30.4563 24.7792 30.4563 25.1234C30.4563 25.4671 30.179 25.7447 29.8349 25.7447H26.4864V28.2839C26.4864 28.661 26.187 28.96 25.8103 28.96C25.4221 28.96 25.1228 28.6607 25.1228 28.2839V21.8298C25.1228 21.4415 25.4221 21.1422 25.8103 21.1422H30.3352C30.678 21.1419 30.9556 21.4188 30.9556 21.7629H30.9555ZM9.556 7.21819C9.556 6.86161 9.84477 6.57316 10.201 6.57316H22.7334C23.09 6.57316 23.3785 6.86193 23.3785 7.21819C23.3785 7.57477 23.0897 7.86322 22.7334 7.86322H10.201C9.84509 7.86386 9.556 7.57413 9.556 7.21819ZM30.443 12.2989C30.443 12.6554 30.1543 12.9439 29.798 12.9439H10.2012C9.84463 12.9439 9.55618 12.6551 9.55618 12.2989C9.55618 11.9423 9.84495 11.6538 10.2012 11.6538H29.798C30.1543 11.6541 30.443 11.9426 30.443 12.2989ZM34.264 37.1083C34.264 37.9915 33.5461 38.7104 32.6627 38.7104H7.33679C6.45352 38.7104 5.73463 37.9918 5.73463 37.1083V33.3673L34.2633 33.367V37.1079L34.264 37.1083ZM5.73537 2.893C5.73537 2.00972 6.45395 1.29174 7.33753 1.29174H27.1783V5.48585C27.1783 7.08065 28.4757 8.37777 30.0702 8.37777H34.2643V16.7357H5.7357L5.73537 2.893Z" fill="#28313D"/>
</svg>
