<svg width="22" height="22" viewBox="0 0 22 22" fill="none" xmlns="http://www.w3.org/2000/svg">
<path fill-rule="evenodd" clip-rule="evenodd" d="M21.54 16.3109L19.086 13.9431C18.4725 13.2416 17.4208 13.2416 16.8073 13.9431L14.4409 16.2231C12.6881 15.9599 10.6722 14.9076 8.91912 13.1539C7.16627 11.3123 6.02684 9.29549 5.76401 7.54141L8.04272 5.26144C8.74385 4.55993 8.74385 3.59523 8.04272 2.98147L5.58874 0.526138C4.97517 -0.175379 4.01116 -0.175379 3.31003 0.526138C2.52114 1.31547 1.73245 2.10459 0.943608 2.98147C-1.51037 5.34921 1.11889 11.2247 5.41347 15.7848C9.97105 20.5203 16.4565 23.6771 19.0858 21.0463C19.8747 20.257 20.6634 19.4679 21.5398 18.591C22.1534 17.9771 22.1534 17.0125 21.5398 16.311L21.54 16.3109Z" fill="white"/>
</svg>
