<?xml version="1.0" encoding="utf-8"?><svg xmlns="http://www.w3.org/2000/svg" xmlns:xlink="http://www.w3.org/1999/xlink"><symbol viewBox="0 0 10 17" id="arrow" xmlns="http://www.w3.org/2000/svg"><path d="M10 8.5l-.425-.412L1.202 0 0 .825 7.948 8.5 0 16.175 1.202 17l8.373-8.088L10 8.5z"/></symbol><symbol viewBox="0 0 28 28" id="close" xmlns="http://www.w3.org/2000/svg"><path d="M26.486 0L14 12.486 1.514 0 0 1.514 12.486 14 0 26.486 1.514 28 14 15.514 26.486 28 28 26.486 15.514 14 28 1.514 26.486 0z"/></symbol><symbol viewBox="0 0 22 22" id="phone_white" xmlns="http://www.w3.org/2000/svg"><path fill-rule="evenodd" clip-rule="evenodd" d="M21.54 16.31l-2.454-2.367a1.497 1.497 0 00-2.279 0l-2.366 2.28c-1.753-.263-3.769-1.315-5.522-3.07-1.753-1.84-2.892-3.858-3.155-5.612l2.279-2.28c.7-.701.7-1.666 0-2.28L5.589.526c-.614-.701-1.578-.701-2.279 0-.789.79-1.578 1.579-2.366 2.455-2.454 2.368.175 8.244 4.47 12.804 4.557 4.735 11.042 7.892 13.672 5.261l2.454-2.455c.613-.614.613-1.579 0-2.28z"/></symbol><symbol viewBox="0 0 22 22" id="tel" xmlns="http://www.w3.org/2000/svg"><path fill-rule="evenodd" clip-rule="evenodd" d="M21.54 16.31l-2.454-2.367a1.497 1.497 0 00-2.279 0l-2.366 2.28c-1.753-.263-3.769-1.315-5.522-3.07-1.753-1.84-2.892-3.858-3.155-5.612l2.279-2.28c.7-.701.7-1.666 0-2.28L5.589.526c-.614-.701-1.578-.701-2.279 0-.789.79-1.578 1.579-2.366 2.455-2.454 2.368.175 8.244 4.47 12.804 4.557 4.735 11.042 7.892 13.672 5.261l2.454-2.455c.613-.614.613-1.579 0-2.28z"/></symbol></svg>