<svg width="187" height="45" viewBox="0 0 187 45" fill="none" xmlns="http://www.w3.org/2000/svg">
<path d="M44.5627 22.2423C44.5627 26.6414 43.256 30.9417 40.8077 34.5995C38.3593 38.2572 34.8795 41.108 30.8081 42.7915C26.7367 44.475 22.2567 44.9155 17.9345 44.0572C13.6123 43.199 9.64217 41.0806 6.52607 37.97C3.40996 34.8593 1.28787 30.8962 0.428143 26.5816C-0.431588 22.267 0.00964499 17.7948 1.69607 13.7305C3.38249 9.66629 6.23837 6.19252 9.90252 3.74851C13.5667 1.30449 17.8745 0 22.2814 0C28.1908 0 33.8581 2.34338 38.0367 6.51462C42.2153 10.6859 44.5627 16.3433 44.5627 22.2423" fill="white"/>
<path d="M5.94141 15.5684V22.083H14.7624V30.8885H21.2885V22.083V15.5684H14.7624H5.94141Z" fill="#28313D"/>
<path d="M38.6166 15.5684H29.7901H23.2695V22.083V30.8885H29.7901V22.083H38.6166V15.5684Z" fill="#28313D"/>
<path d="M56.7821 18.5916H52.082V15.5684H64.9797V18.5916H60.2796V32.1881H56.7821V18.5916Z" fill="white"/>
<path d="M72.6527 25.3089C72.6471 24.9807 72.5702 24.6575 72.4273 24.3619C72.2844 24.0662 72.079 23.805 71.8252 23.5962C71.2176 23.158 70.4772 22.9421 69.7289 22.985C68.9858 22.944 68.2519 23.1642 67.6546 23.6073C67.4027 23.8152 67.1985 24.0748 67.0558 24.3684C66.913 24.6619 66.8351 24.9827 66.8272 25.3089H72.6527ZM65.3267 30.6561C64.7158 30.1268 64.2342 29.4651 63.9187 28.7216C63.6032 27.9781 63.4621 27.1725 63.5062 26.3662C63.464 25.573 63.5862 24.7797 63.8653 24.0358C64.1444 23.292 64.5743 22.6137 65.1281 22.0433C66.2093 20.986 67.7558 20.4573 69.7675 20.4573C70.9325 20.4209 72.0885 20.6725 73.1326 21.1897C74.0185 21.6461 74.7483 22.3554 75.2289 23.2273C75.7121 24.1274 75.9571 25.1358 75.9405 26.1569V27.5612H66.8272C67.0736 28.971 68.3939 29.6758 70.7881 29.6758C71.5273 29.6755 72.2653 29.6147 72.9947 29.4941C73.6633 29.3933 74.3196 29.2235 74.953 28.9875V31.4271C74.2858 31.6916 73.5896 31.8765 72.8788 31.9777C72.0418 32.1157 71.195 32.1856 70.3467 32.187C68.2284 32.187 66.5624 31.6767 65.3487 30.6561" fill="white"/>
<path d="M80.6193 26.319L76.3144 21H80.1025L82.5 23.9816L84.9189 21H88.707L84.3807 26.319L89 32H85.2598L82.5 28.6297L79.7668 32H76L80.6193 26.319Z" fill="white"/>
<path d="M113.178 28.6083C113.711 27.9602 114.002 27.1477 114.002 26.3092C114.002 25.4707 113.711 24.6581 113.178 24.0101C112.882 23.7235 112.529 23.5012 112.143 23.3571C111.757 23.2131 111.345 23.1504 110.933 23.173C110.519 23.1512 110.106 23.2142 109.718 23.3582C109.33 23.5021 108.975 23.724 108.676 24.0101C108.136 24.6549 107.841 25.4687 107.841 26.3092C107.841 27.1496 108.136 27.9634 108.676 28.6083C108.97 28.8998 109.322 29.1272 109.708 29.276C110.095 29.4249 110.508 29.4919 110.922 29.4729C111.334 29.4927 111.746 29.426 112.131 29.2771C112.515 29.1282 112.865 28.9003 113.156 28.6083M107.408 31.4609C106.448 31.0198 105.638 30.3076 105.08 29.4123C104.544 28.4756 104.262 27.4155 104.262 26.3367C104.262 25.2579 104.544 24.1978 105.08 23.2611C105.638 22.3598 106.447 21.6402 107.408 21.1905C108.511 20.7059 109.703 20.4556 110.908 20.4556C112.113 20.4556 113.305 20.7059 114.408 21.1905C115.369 21.6405 116.178 22.36 116.736 23.2611C117.273 24.1977 117.555 25.2578 117.555 26.3367C117.555 27.4156 117.273 28.4758 116.736 29.4123C116.179 30.3051 115.374 31.0169 114.419 31.4609C113.312 31.939 112.119 32.1857 110.913 32.1857C109.708 32.1857 108.514 31.939 107.408 31.4609Z" fill="white"/>
<path d="M144.837 25.3089C144.831 24.9806 144.755 24.6573 144.612 24.3616C144.469 24.0659 144.263 23.8047 144.009 23.5962C143.402 23.158 142.661 22.9421 141.913 22.985C141.17 22.944 140.436 23.1642 139.839 23.6073C139.587 23.8152 139.382 24.0748 139.24 24.3684C139.097 24.6619 139.019 24.9827 139.011 25.3089H144.837ZM137.516 30.6561C136.905 30.1268 136.424 29.4651 136.108 28.7216C135.793 27.9781 135.652 27.1725 135.696 26.3662C135.653 25.573 135.776 24.7797 136.055 24.0358C136.334 23.292 136.764 22.6137 137.318 22.0433C138.399 20.986 139.945 20.4573 141.957 20.4573C143.122 20.4209 144.278 20.6725 145.322 21.1897C146.208 21.6461 146.938 22.3554 147.418 23.2273C147.902 24.1274 148.146 25.1358 148.13 26.1569V27.5612H139.006C139.252 28.971 140.572 29.6758 142.966 29.6758C143.706 29.6754 144.444 29.6146 145.173 29.4941C145.842 29.3933 146.498 29.2235 147.131 28.9875V31.4271C146.464 31.6916 145.768 31.8765 145.057 31.9777C144.22 32.1157 143.373 32.1856 142.525 32.187C140.407 32.187 138.741 31.6767 137.527 30.6561" fill="white"/>
<path d="M168.96 29.5936C169.404 29.4023 169.786 29.0915 170.063 28.696V27.5946C169.301 27.0801 168.401 26.8075 167.481 26.8127C166.956 26.7789 166.434 26.9203 165.997 27.2147C165.823 27.3564 165.684 27.5379 165.594 27.7439C165.504 27.9498 165.464 28.1743 165.479 28.3987C165.471 28.6092 165.512 28.8186 165.6 29.01C165.689 29.2014 165.821 29.3693 165.986 29.5C166.413 29.7869 166.924 29.9244 167.437 29.891C167.969 29.8998 168.497 29.7907 168.982 29.5716M163.189 31.1686C162.771 30.8368 162.437 30.4109 162.214 29.9257C161.992 29.4405 161.887 28.9097 161.91 28.3766C161.88 27.838 161.975 27.2999 162.186 26.8035C162.397 26.3071 162.72 25.8656 163.129 25.513C164.122 24.7737 165.346 24.4106 166.582 24.4887C167.217 24.487 167.85 24.5572 168.469 24.698C169.02 24.8114 169.554 24.9966 170.058 25.2487V24.9734C170.079 24.6775 170.022 24.3811 169.893 24.1142C169.763 23.8474 169.565 23.6194 169.318 23.4534C168.627 23.0835 167.845 22.9156 167.062 22.9689C165.779 22.9555 164.508 23.2145 163.333 23.7288V21.2507C163.948 20.9967 164.591 20.812 165.247 20.7C166.022 20.5546 166.809 20.4808 167.597 20.4797C169.594 20.4797 171.084 20.8891 172.066 21.7078C172.558 22.1299 172.947 22.6592 173.202 23.2549C173.458 23.8507 173.573 24.497 173.538 25.1441V32.1709H170.267V30.8437C169.759 31.3081 169.163 31.6671 168.514 31.8996C167.865 32.1322 167.177 32.2337 166.488 32.1984C165.299 32.2514 164.129 31.8893 163.178 31.1741" fill="white"/>
<path d="M179.724 20.8054H182.438L187.001 32.1881H183.487L181.081 25.5083L178.582 32.1881H175.162L179.724 20.8054Z" fill="white"/>
<path d="M90.8518 32.1827V20.811H94.0735V24.9742H98.9501V20.811H102.21V32.1827H98.9501V27.7387H94.0735V32.1827H90.8518Z" fill="white"/>
<path d="M123.763 29.209H127.216C129.163 29.209 130.294 28.3444 130.294 26.7474C130.294 25.1504 129.191 24.2418 127.216 24.2418H123.763V29.209ZM120.381 32.1827V15.7832H132.308V18.8065H123.763V21.4333H127.475C129.378 21.4333 130.901 21.9234 132.004 22.9311C132.556 23.4143 132.994 24.0136 133.285 24.6859C133.577 25.3582 133.716 26.0867 133.692 26.819C133.716 27.549 133.58 28.2753 133.294 28.9476C133.009 29.6199 132.58 30.2221 132.037 30.7124C130.934 31.6981 129.406 32.1882 127.481 32.1882L120.381 32.1827Z" fill="white"/>
<path d="M153.526 32.1881V23.7296H149.107V20.8054H161.216V23.7296H156.726V32.1881H153.526Z" fill="white"/>
</svg>
