<svg width="187" height="44" viewBox="0 0 187 44" fill="none" xmlns="http://www.w3.org/2000/svg">
<path d="M44.5627 22C44.5627 26.3512 43.256 30.6047 40.8077 34.2225C38.3593 37.8404 34.8795 40.6602 30.8081 42.3253C26.7367 43.9904 22.2567 44.4261 17.9345 43.5773C13.6123 42.7284 9.64217 40.6331 6.52607 37.5563C3.40996 34.4796 1.28787 30.5596 0.428143 26.292C-0.431588 22.0244 0.00964499 17.6009 1.69607 13.581C3.38249 9.56098 6.23837 6.12506 9.90252 3.70767C13.5667 1.29028 17.8745 0 22.2814 0C28.1908 0 33.8581 2.31785 38.0367 6.44365C42.2153 10.5694 44.5627 16.1652 44.5627 22Z" fill="#28313D"/>
<path d="M5.94141 15.3987V21.8424H14.7624V30.5519H21.2885V21.8424V15.3987H14.7624H5.94141Z" fill="#FFDE17"/>
<path d="M38.6166 15.3987H29.7901H23.2695V21.8424V30.5519H29.7901V21.8424H38.6166V15.3987Z" fill="#FFDE17"/>
<path d="M56.7821 18.389H52.082V15.3987H64.9797V18.389H60.2796V31.8374H56.7821V18.389Z" fill="#28313D"/>
<path d="M72.6527 25.0333C72.6471 24.7087 72.5702 24.3891 72.4273 24.0966C72.2844 23.8042 72.079 23.5458 71.8252 23.3394C71.2176 22.9059 70.4772 22.6924 69.7289 22.7348C68.9858 22.6942 68.2519 22.912 67.6546 23.3502C67.4027 23.556 67.1985 23.8127 67.0558 24.1031C66.913 24.3934 66.8351 24.7107 66.8272 25.0333H72.6527ZM65.3267 30.3223C64.7158 29.7988 64.2342 29.1443 63.9187 28.4089C63.6032 27.6735 63.4621 26.8766 63.5062 26.0791C63.464 25.2946 63.5862 24.5099 63.8653 23.7742C64.1444 23.0384 64.5743 22.3675 65.1281 21.8033C66.2093 20.7575 67.7558 20.2346 69.7675 20.2346C70.9325 20.1986 72.0885 20.4475 73.1326 20.9591C74.0185 21.4104 74.7483 22.112 75.2289 22.9744C75.7121 23.8648 75.9571 24.8622 75.9405 25.8722V27.2611H66.8272C67.0736 28.6555 68.3939 29.3527 70.7881 29.3527C71.5273 29.3523 72.2653 29.2922 72.9947 29.173C73.6633 29.0732 74.3196 28.9053 74.953 28.6718V31.0849C74.2858 31.3465 73.5896 31.5294 72.8788 31.6295C72.0418 31.766 71.195 31.8352 70.3467 31.8365C68.2284 31.8365 66.5624 31.3318 65.3487 30.3223" fill="#28313D"/>
<path d="M80.5739 26.0262L76.1165 20.5847H80.0388L82.5212 23.635L85.0257 20.5847H88.948L84.4686 26.0262L89.2514 31.838H85.3788L82.5212 28.3901L79.6912 31.838H75.791L80.5739 26.0262Z" fill="#28313D"/>
<path d="M113.178 28.2961C113.711 27.655 114.002 26.8514 114.002 26.022C114.002 25.1927 113.711 24.389 113.178 23.7479C112.882 23.4645 112.529 23.2446 112.143 23.1021C111.757 22.9597 111.345 22.8976 110.933 22.92C110.519 22.8984 110.106 22.9607 109.718 23.1031C109.33 23.2455 108.975 23.465 108.676 23.7479C108.136 24.3858 107.841 25.1907 107.841 26.022C107.841 26.8533 108.136 27.6582 108.676 28.2961C108.97 28.5844 109.322 28.8094 109.708 28.9566C110.095 29.1038 110.508 29.1701 110.922 29.1512C111.334 29.1709 111.746 29.1049 112.131 28.9576C112.515 28.8103 112.865 28.5849 113.156 28.2961M107.408 31.1176C106.448 30.6813 105.638 29.9769 105.08 29.0913C104.544 28.1648 104.262 27.1163 104.262 26.0493C104.262 24.9822 104.544 23.9337 105.08 23.0072C105.638 22.1156 106.447 21.4039 107.408 20.9591C108.511 20.4797 109.703 20.2322 110.908 20.2322C112.113 20.2322 113.305 20.4797 114.408 20.9591C115.369 21.4042 116.178 22.1158 116.736 23.0072C117.273 23.9335 117.555 24.9821 117.555 26.0493C117.555 27.1164 117.273 28.165 116.736 29.0913C116.179 29.9744 115.374 30.6785 114.419 31.1176C113.312 31.5905 112.119 31.8345 110.913 31.8345C109.708 31.8345 108.514 31.5905 107.408 31.1176Z" fill="#28313D"/>
<path d="M144.837 25.0333C144.831 24.7086 144.755 24.3889 144.612 24.0964C144.469 23.8039 144.263 23.5456 144.009 23.3394C143.402 22.9059 142.661 22.6924 141.913 22.7348C141.17 22.6942 140.436 22.912 139.839 23.3502C139.587 23.556 139.382 23.8127 139.24 24.1031C139.097 24.3934 139.019 24.7107 139.011 25.0333H144.837ZM137.516 30.3223C136.905 29.7988 136.424 29.1443 136.108 28.4089C135.793 27.6735 135.652 26.8766 135.696 26.0791C135.653 25.2946 135.776 24.5099 136.055 23.7742C136.334 23.0384 136.764 22.3675 137.318 21.8033C138.399 20.7575 139.945 20.2346 141.957 20.2346C143.122 20.1986 144.278 20.4475 145.322 20.9591C146.208 21.4104 146.938 22.112 147.418 22.9744C147.902 23.8648 148.146 24.8622 148.13 25.8722V27.2611H139.006C139.252 28.6555 140.572 29.3527 142.966 29.3527C143.706 29.3523 144.444 29.2922 145.173 29.173C145.842 29.0732 146.498 28.9053 147.131 28.6718V31.0849C146.464 31.3465 145.768 31.5294 145.057 31.6295C144.22 31.766 143.373 31.8352 142.525 31.8365C140.407 31.8365 138.741 31.3318 137.527 30.3223" fill="#28313D"/>
<path d="M168.96 29.271C169.404 29.0817 169.786 28.7743 170.063 28.3831V27.2937C169.301 26.7848 168.401 26.5152 167.481 26.5203C166.956 26.4869 166.434 26.6267 165.997 26.9179C165.823 27.0581 165.684 27.2376 165.594 27.4413C165.504 27.645 165.464 27.8671 165.479 28.089C165.471 28.2972 165.512 28.5044 165.6 28.6937C165.689 28.883 165.821 29.0491 165.986 29.1784C166.413 29.4621 166.924 29.5981 167.437 29.5651C167.969 29.5737 168.497 29.4658 168.982 29.2492M163.189 30.8288C162.771 30.5005 162.437 30.0793 162.214 29.5994C161.992 29.1195 161.887 28.5945 161.91 28.0672C161.88 27.5345 161.975 27.0022 162.186 26.5112C162.397 26.0202 162.72 25.5836 163.129 25.2348C164.122 24.5035 165.346 24.1444 166.582 24.2217C167.217 24.22 167.85 24.2894 168.469 24.4287C169.02 24.5409 169.554 24.724 170.058 24.9734V24.701C170.079 24.4084 170.022 24.1152 169.893 23.8513C169.763 23.5873 169.565 23.3618 169.318 23.1977C168.627 22.8318 167.845 22.6657 167.062 22.7184C165.779 22.7051 164.508 22.9614 163.333 23.47V21.0189C163.948 20.7677 164.591 20.585 165.247 20.4742C166.022 20.3304 166.809 20.2574 167.597 20.2563C169.594 20.2563 171.084 20.6612 172.066 21.471C172.558 21.8885 172.947 22.412 173.202 23.0013C173.458 23.5906 173.573 24.2298 173.538 24.8699V31.8201H170.267V30.5074C169.759 30.9668 169.163 31.3218 168.514 31.5518C167.865 31.7819 167.177 31.8823 166.488 31.8473C165.299 31.8998 164.129 31.5416 163.178 30.8342" fill="#28313D"/>
<path d="M179.724 20.5791H182.438L187.001 31.8378H183.487L181.081 25.2307L178.582 31.8378H175.162L179.724 20.5791Z" fill="#28313D"/>
<path d="M90.8516 31.8325V20.5847H94.0732V24.7026H98.9499V20.5847H102.21V31.8325H98.9499V27.4369H94.0732V31.8325H90.8516Z" fill="#28313D"/>
<path d="M123.763 28.8909H127.216C129.163 28.8909 130.294 28.0357 130.294 26.4561C130.294 24.8765 129.191 23.9778 127.216 23.9778H123.763V28.8909ZM120.381 31.8322V15.6113H132.308V18.6017H123.763V21.1998H127.475C129.378 21.1998 130.901 21.6846 132.004 22.6814C132.556 23.1593 132.994 23.7521 133.285 24.417C133.577 25.082 133.716 25.8026 133.692 26.5269C133.716 27.2489 133.58 27.9673 133.294 28.6323C133.009 29.2973 132.58 29.8929 132.037 30.3778C130.934 31.3528 129.406 31.8376 127.481 31.8376L120.381 31.8322Z" fill="#28313D"/>
<path d="M153.526 31.8376V23.4712H149.107V20.5789H161.216V23.4712H156.726V31.8376H153.526Z" fill="#28313D"/>
</svg>
