<svg width="30" height="28" viewBox="0 0 30 28" fill="none" xmlns="http://www.w3.org/2000/svg">
<path d="M6.99997 12V27C6.99997 27.5527 6.55265 28 5.99997 28H0.999995C0.447318 28 0 27.5527 0 27V12C0 11.4473 0.447318 11 0.999995 11H5.99997C6.55265 11 6.99997 11.4473 6.99997 12ZM29.9999 16C29.9999 14.9404 29.4472 14.0069 28.6161 13.4737C28.865 13.0333 28.9999 12.5293 28.9999 12C28.9999 10.3458 27.6541 9 25.9999 9H18.0136C18.0263 7.8232 18.0391 5.81251 18 3.98057C17.9375 0.832115 14.7022 0 13 0C12.7188 0 12.4491 0.119194 12.2599 0.327234C12.0703 0.535269 11.9777 0.814508 12.0049 1.09489C12.2159 3.31363 12.373 6.81546 12.0605 7.65718C11.7324 8.55649 10.2784 10.8016 9.47083 11.9998H9.00007V26.0712C9.7159 26.3447 11.1485 26.8721 11.836 26.9862C11.8898 26.9951 11.9454 27 12.0001 27H25C26.6542 27 28 25.6543 28 24C28 23.4708 27.8652 22.9668 27.6163 22.5264C28.4473 21.9931 29 21.0596 29 20C29 19.4708 28.8652 18.9668 28.6163 18.5264C29.4473 17.9931 30 17.0596 30 16L29.9999 16Z" fill="white"/>
</svg>
